<?xml version="1.0" encoding="UTF-8"?>
<svg width="600" height="400" viewBox="0 0 600 400" fill="none" xmlns="http://www.w3.org/2000/svg">
  <!-- Background -->
  <rect width="600" height="400" fill="#1E293B"/>
  
  <!-- Grid Lines -->
  <g opacity="0.1" stroke="white">
    <line x1="0" y1="100" x2="600" y2="100" stroke-width="1"/>
    <line x1="0" y1="200" x2="600" y2="200" stroke-width="1"/>
    <line x1="0" y1="300" x2="600" y2="300" stroke-width="1"/>
    <line x1="150" y1="0" x2="150" y2="400" stroke-width="1"/>
    <line x1="300" y1="0" x2="300" y2="400" stroke-width="1"/>
    <line x1="450" y1="0" x2="450" y2="400" stroke-width="1"/>
  </g>
  
  <!-- Analytics Graph -->
  <path d="M50,350 Q150,100 300,200 T550,50" stroke="#3AADAB" stroke-width="3" fill="none"/>
  <path d="M50,350 Q150,100 300,200 T550,50" stroke="#57DCDA" stroke-width="1" fill="none" opacity="0.5"/>
  
  <!-- Data Points -->
  <circle cx="50" cy="350" r="6" fill="#3AADAB"/>
  <circle cx="150" cy="100" r="6" fill="#3AADAB"/>
  <circle cx="300" cy="200" r="6" fill="#3AADAB"/>
  <circle cx="450" cy="150" r="6" fill="#3AADAB"/>
  <circle cx="550" cy="50" r="6" fill="#3AADAB"/>
  
  <!-- AI Icons -->
  <g transform="translate(250,150)">
    <rect width="100" height="100" rx="20" fill="#0F172A" opacity="0.8"/>
    <path d="M270,180 Q300,160 330,180" stroke="#57DCDA" stroke-width="2" fill="none"/>
    <circle cx="285" cy="170" r="3" fill="#57DCDA"/>
    <circle cx="315" cy="170" r="3" fill="#57DCDA"/>
  </g>
</svg> 