<?xml version="1.0" encoding="UTF-8"?>
<svg width="800" height="600" viewBox="0 0 800 600" fill="none" xmlns="http://www.w3.org/2000/svg">
  <!-- Background -->
  <rect width="800" height="600" fill="#1E293B"/>
  
  <!-- Stage Area -->
  <g transform="translate(50,100)">
    <!-- Stage Platform -->
    <rect width="700" height="200" rx="20" fill="#0F172A"/>
    
    <!-- Presentation Screen -->
    <rect x="150" y="-50" width="400" height="250" rx="10" fill="#2D3748"/>
    <rect x="170" y="-30" width="360" height="210" rx="5" fill="#3AADAB" opacity="0.2"/>
    
    <!-- Speaker Area -->
    <circle cx="350" cy="150" r="30" fill="#3AADAB"/>
    
    <!-- Audience Area -->
    <g transform="translate(0,250)">
      <!-- Rows of seats -->
      <g transform="translate(50,0)">
        <circle cx="0" cy="0" r="10" fill="#2D3748"/>
        <circle cx="50" cy="0" r="10" fill="#2D3748"/>
        <circle cx="100" cy="0" r="10" fill="#2D3748"/>
        <circle cx="150" cy="0" r="10" fill="#2D3748"/>
        <circle cx="200" cy="0" r="10" fill="#2D3748"/>
        <circle cx="250" cy="0" r="10" fill="#2D3748"/>
      </g>
      <g transform="translate(50,50)">
        <circle cx="0" cy="0" r="10" fill="#2D3748"/>
        <circle cx="50" cy="0" r="10" fill="#2D3748"/>
        <circle cx="100" cy="0" r="10" fill="#2D3748"/>
        <circle cx="150" cy="0" r="10" fill="#2D3748"/>
        <circle cx="200" cy="0" r="10" fill="#2D3748"/>
        <circle cx="250" cy="0" r="10" fill="#2D3748"/>
      </g>
      <g transform="translate(50,100)">
        <circle cx="0" cy="0" r="10" fill="#2D3748"/>
        <circle cx="50" cy="0" r="10" fill="#2D3748"/>
        <circle cx="100" cy="0" r="10" fill="#2D3748"/>
        <circle cx="150" cy="0" r="10" fill="#2D3748"/>
        <circle cx="200" cy="0" r="10" fill="#2D3748"/>
        <circle cx="250" cy="0" r="10" fill="#2D3748"/>
      </g>
    </g>
  </g>
  
  <!-- Decorative Elements -->
  <circle cx="100" cy="100" r="50" fill="#3AADAB" opacity="0.1"/>
  <circle cx="700" cy="500" r="70" fill="#3AADAB" opacity="0.1"/>
  
  <!-- Grid Pattern -->
  <g opacity="0.05" stroke="white">
    <line x1="0" y1="200" x2="800" y2="200" stroke-width="1"/>
    <line x1="0" y1="400" x2="800" y2="400" stroke-width="1"/>
    <line x1="200" y1="0" x2="200" y2="600" stroke-width="1"/>
    <line x1="400" y1="0" x2="400" y2="600" stroke-width="1"/>
    <line x1="600" y1="0" x2="600" y2="600" stroke-width="1"/>
  </g>
</svg> 