<?xml version="1.0" encoding="UTF-8"?>
<svg width="800" height="600" viewBox="0 0 800 600" fill="none" xmlns="http://www.w3.org/2000/svg">
  <!-- Background -->
  <rect width="800" height="600" fill="#1E293B"/>
  
  <!-- Office Space -->
  <g transform="translate(50,50)">
    <!-- Desks -->
    <rect width="300" height="200" rx="10" fill="#0F172A"/>
    <rect x="400" width="300" height="200" rx="10" fill="#0F172A"/>
    <rect y="300" width="300" height="200" rx="10" fill="#0F172A"/>
    <rect x="400" y="300" width="300" height="200" rx="10" fill="#0F172A"/>
    
    <!-- Decorative Elements -->
    <circle cx="150" cy="100" r="30" fill="#3AADAB" opacity="0.3"/>
    <circle cx="550" cy="400" r="40" fill="#3AADAB" opacity="0.3"/>
    <circle cx="350" cy="250" r="50" fill="#3AADAB" opacity="0.2"/>
    
    <!-- Monitors -->
    <rect x="50" y="70" width="80" height="60" rx="5" fill="#2D3748"/>
    <rect x="450" y="70" width="80" height="60" rx="5" fill="#2D3748"/>
    <rect x="50" y="370" width="80" height="60" rx="5" fill="#2D3748"/>
    <rect x="450" y="370" width="80" height="60" rx="5" fill="#2D3748"/>
  </g>
  
  <!-- Grid Pattern -->
  <g opacity="0.1" stroke="white">
    <line x1="0" y1="150" x2="800" y2="150" stroke-width="1"/>
    <line x1="0" y1="300" x2="800" y2="300" stroke-width="1"/>
    <line x1="0" y1="450" x2="800" y2="450" stroke-width="1"/>
    <line x1="200" y1="0" x2="200" y2="600" stroke-width="1"/>
    <line x1="400" y1="0" x2="400" y2="600" stroke-width="1"/>
    <line x1="600" y1="0" x2="600" y2="600" stroke-width="1"/>
  </g>
</svg> 