<?xml version="1.0" encoding="UTF-8"?>
<svg width="800" height="600" viewBox="0 0 800 600" fill="none" xmlns="http://www.w3.org/2000/svg">
  <!-- Background -->
  <rect width="800" height="600" fill="#1E293B"/>
  
  <!-- Workshop Area -->
  <g transform="translate(50,50)">
    <!-- Main Table -->
    <rect width="700" height="400" rx="20" fill="#0F172A"/>
    
    <!-- Laptops -->
    <g transform="translate(50,50)">
      <!-- Row 1 -->
      <rect width="120" height="80" rx="5" fill="#2D3748"/>
      <rect x="170" width="120" height="80" rx="5" fill="#2D3748"/>
      <rect x="340" width="120" height="80" rx="5" fill="#2D3748"/>
      <rect x="510" width="120" height="80" rx="5" fill="#2D3748"/>
      
      <!-- Row 2 -->
      <rect y="170" width="120" height="80" rx="5" fill="#2D3748"/>
      <rect x="170" y="170" width="120" height="80" rx="5" fill="#2D3748"/>
      <rect x="340" y="170" width="120" height="80" rx="5" fill="#2D3748"/>
      <rect x="510" y="170" width="120" height="80" rx="5" fill="#2D3748"/>
    </g>
    
    <!-- Presentation Screen -->
    <rect x="200" y="-30" width="300" height="20" rx="5" fill="#3AADAB"/>
    
    <!-- Instructor Area -->
    <circle cx="350" cy="350" r="30" fill="#3AADAB"/>
  </g>
  
  <!-- Decorative Elements -->
  <circle cx="150" cy="150" r="60" fill="#3AADAB" opacity="0.1"/>
  <circle cx="650" cy="450" r="80" fill="#3AADAB" opacity="0.1"/>
  
  <!-- Grid Pattern -->
  <g opacity="0.05" stroke="white">
    <line x1="0" y1="150" x2="800" y2="150" stroke-width="1"/>
    <line x1="0" y1="300" x2="800" y2="300" stroke-width="1"/>
    <line x1="0" y1="450" x2="800" y2="450" stroke-width="1"/>
    <line x1="200" y1="0" x2="200" y2="600" stroke-width="1"/>
    <line x1="400" y1="0" x2="400" y2="600" stroke-width="1"/>
    <line x1="600" y1="0" x2="600" y2="600" stroke-width="1"/>
  </g>
</svg> 